# xmcd CD database file
#
# Track frame offsets:
#	150
#	30522
#	57135
#	82977
#	99880
#	133890
#	161640
#	179497
#	207837
#
# Disc length: 3026 seconds
#
# Revision: 0
# Processed by: cddbd v1.5.1PL0 Copyright (c) Steve Scherf et al.
# Submitted via: CDex 1.51
#
DISCID=6e0bd009
DTITLE=田中健 - ユーラシア
DYEAR=1997
DGENRE=New Age
TTITLE0=碧い風
TTITLE1=ユーラシア
TTITLE2=竹田の子守唄
TTITLE3=波の鼓動
TTITLE4=時の散歩
TTITLE5=赤とんぼ
TTITLE6=街
TTITLE7=星の匂い
TTITLE8=早春
EXTD=YEAR: 1997
EXTT0=
EXTT1=
EXTT2=
EXTT3=
EXTT4=
EXTT5=
EXTT6=
EXTT7=
EXTT8=
PLAYORDER=
